<?xml version="1.0" encoding="utf-8"?>
<!-- Generator: Adobe Illustrator 27.4.0, SVG Export Plug-In . SVG Version: 6.00 Build 0)  -->
<svg version="1.1" id="Layer_1" xmlns="http://www.w3.org/2000/svg" xmlns:xlink="http://www.w3.org/1999/xlink" x="0px" y="0px"
	 viewBox="0 0 841.89 595.28" style="enable-background:new 0 0 841.89 595.28;" xml:space="preserve">
<style type="text/css">
	.st0{fill:#FFFFFF;}
	.st1{fill:#231F20;}
</style>
<g>
	<path class="st0" d="M140.91,184.7v-68.49c0-2.49,1.5-3.99,3.99-3.99h12.8c2.49,0,3.99,1.33,3.99,3.82v3.82
		c5.65-6.15,13.3-8.81,20.28-8.81c8.81,0,18.12,2.99,23.61,11.64c6.48-8.81,16.62-11.64,25.1-11.64c13.46,0,28.59,6.98,28.59,30.92
		v42.72c0,2.49-1.5,3.99-3.99,3.99h-12.8c-2.49,0-3.99-1.5-3.99-3.99v-39.9c0-13.3-9.47-15.63-14.29-15.63
		c-4.66,0-13.8,2.33-13.8,15.63v39.9c0,2.49-1.5,3.99-3.99,3.99h-12.8c-2.5,0-3.99-1.5-3.99-3.99v-39.9
		c0-13.3-9.31-15.63-14.13-15.63s-13.79,2.33-13.79,15.63v39.9c0,2.49-1.5,3.99-3.99,3.99h-12.8
		C142.41,188.69,140.91,187.19,140.91,184.7z"/>
	<path class="st0" d="M277.56,89.27c0-7.15,5.82-10.97,11.47-10.97c5.49,0,11.47,3.82,11.47,10.97c0,7.31-5.98,11.64-11.47,11.64
		C283.38,100.91,277.56,96.59,277.56,89.27z M278.56,184.7v-68.49c0-2.49,1.5-3.99,3.99-3.99h12.97c2.49,0,3.99,1.5,3.99,3.99
		l-0.17,68.49c0,2.49-1.5,3.99-3.99,3.99h-12.8C280.05,188.69,278.56,187.19,278.56,184.7z"/>
	<path class="st0" d="M318.79,184.7v-68.49c0-2.49,1.5-3.99,3.99-3.99h12.8c2.49,0,3.99,1.33,3.99,3.66v3.66
		c5.82-6.32,13.96-8.48,21.44-8.48c13.8,0,29.76,7.48,29.76,30.92v42.72c0,2.49-1.5,3.99-3.99,3.99h-12.8
		c-2.49,0-3.99-1.5-3.99-3.99v-39.57c0-13.47-9.48-16.62-15.3-16.62c-5.98,0-15.13,3.16-15.13,16.62v39.57
		c0,2.49-1.5,3.99-3.99,3.99h-12.8C320.28,188.69,318.79,187.19,318.79,184.7z"/>
	<path class="st0" d="M414.71,210.46c-1.99-1.83-1.66-3.82,0.33-5.65l7.48-6.32c1.83-1.66,3.66-1.5,5.65,0
		c5.32,4.32,11.14,5.32,16.12,5.32c7.15,0,20.12-3.99,20.12-20.45v-2.83c-5.16,5.82-12.47,9.48-22.11,9.48
		c-20.95,0-36.07-16.79-36.07-39.57c0-22.77,15.13-39.4,36.07-39.4c9.64,0,16.95,3.49,22.11,9.48v-4.32c0-2.49,1.5-3.99,3.99-3.99
		h12.8c2.49,0,3.99,1.5,3.99,3.99v67.16c0,21.94-14.46,37.9-40.9,37.9C432.17,221.27,421.86,217.11,414.71,210.46z M464.42,150.45
		c0-11.47-7.65-19.95-19.12-19.95s-18.95,8.48-18.95,19.95s7.48,19.95,18.95,19.95C456.77,170.4,464.42,161.92,464.42,150.45z"/>
	<path class="st0" d="M503.49,184.7V84.62c0-2.49,1.5-3.99,3.99-3.99h12.97c2.49,0,3.99,1.5,3.99,3.99l-0.17,100.08
		c0,2.49-1.5,3.99-3.99,3.99h-12.8C504.98,188.69,503.49,187.19,503.49,184.7z"/>
	<path class="st0" d="M542.72,89.27c0-7.15,5.82-10.97,11.47-10.97c5.49,0,11.47,3.82,11.47,10.97c0,7.31-5.98,11.64-11.47,11.64
		C548.54,100.91,542.72,96.59,542.72,89.27z M543.72,184.7v-68.49c0-2.49,1.5-3.99,3.99-3.99h12.97c2.49,0,3.99,1.5,3.99,3.99
		l-0.17,68.49c0,2.49-1.5,3.99-3.99,3.99h-12.8C545.21,188.69,543.72,187.19,543.72,184.7z"/>
	<path class="st0" d="M581.12,175.89c-1.33-2.16-0.67-3.99,1.5-5.49l7.81-5.15c1.99-1.33,3.66-0.83,5.32,1
		c3.66,3.99,10.8,8.15,18.28,8.15c7.15,0,10.97-2.16,10.97-7.15c0-6.15-9.81-7.81-15.79-9.81s-26.43-6.82-26.43-23.61
		c0-16.29,14.29-23.27,30.75-23.27c14.46,0,24.6,5.82,29.59,12.8c1.5,2.16,0.83,4.16-1.33,5.49l-6.98,4.49
		c-1.99,1.33-3.82,1-5.65-0.67c-3.66-3.16-9.97-6.32-16.29-6.32c-6.81,0-9.8,2.66-9.8,6.48c0,6.15,9.47,7.81,15.46,9.81
		c5.99,1.99,26.77,7.31,26.77,23.77c0,16.13-11.97,24.6-31.59,24.6C597.08,191.01,586.11,183.87,581.12,175.89z"/>
	<path class="st0" d="M663.9,166.58v-38.57h-5.98c-2.49,0-3.99-1.5-3.99-3.99v-7.81c0-2.49,1.5-3.99,3.99-3.99h5.98V92.77
		c0-2.49,1.5-3.99,3.99-3.99h12.8c2.49,0,3.99,1.5,3.99,3.99v19.45h12.3c2.49,0,3.99,1.5,3.99,3.99v7.81c0,2.49-1.5,3.99-3.99,3.99
		h-12.3v35.24c0,8.98,5.48,9.31,10.3,9.31h1.17c2.49,0,3.99,1.5,3.99,3.99v8.15c0,2.49-1.5,3.99-3.99,3.99h-9.81
		C671.05,188.69,663.9,180.71,663.9,166.58z"/>
</g>
<g>
	<path class="st1" d="M212.57,256.13l-8.03,12.75v9.77c0,0.57-0.34,0.91-0.91,0.91h-1.73c-0.57,0-0.9-0.34-0.9-0.91v-9.69
		l-8.07-12.82c-0.38-0.6-0.11-1.09,0.6-1.09h2.07c0.49,0,0.83,0.19,1.09,0.6l6.03,9.62l6.07-9.62c0.26-0.41,0.6-0.6,1.09-0.6h2.07
		C212.69,255.04,212.95,255.53,212.57,256.13z"/>
	<path class="st1" d="M212.31,270.88c0-5.24,3.66-9.01,8.9-9.01c5.2,0,8.83,3.77,8.83,9.01c0,5.17-3.62,9.01-8.83,9.01
		C215.97,279.89,212.31,276.05,212.31,270.88z M226.68,270.88c0-3.32-2.19-5.73-5.47-5.73c-3.32,0-5.51,2.41-5.51,5.73
		c0,3.28,2.19,5.77,5.51,5.77C224.49,276.65,226.68,274.16,226.68,270.88z"/>
	<path class="st1" d="M247.12,262.21h1.58c0.57,0,0.9,0.34,0.9,0.9v15.54c0,0.57-0.34,0.91-0.9,0.91h-1.58
		c-0.57,0-0.91-0.34-0.91-0.91v-1.17c-1.32,1.7-3.36,2.38-5.36,2.38c-3.36,0-6.86-1.96-6.86-6.98v-9.77c0-0.57,0.34-0.9,0.91-0.9
		h1.58c0.57,0,0.91,0.34,0.91,0.9v9.28c0,3.21,2.26,4.53,4.45,4.53c2.15,0,4.37-1.32,4.37-4.53v-9.28
		C246.22,262.54,246.56,262.21,247.12,262.21z"/>
	<path class="st1" d="M262.7,262.02c0.6-0.08,0.94,0.26,0.94,0.87v1.4c0,0.57-0.3,0.87-0.87,0.94c-2.3,0.23-5.24,1.51-5.24,5.43v8
		c0,0.57-0.34,0.91-0.91,0.91h-1.58c-0.57,0-0.91-0.34-0.91-0.91v-15.54c0-0.57,0.34-0.9,0.91-0.9h1.58c0.57,0,0.91,0.34,0.91,0.9
		v2.3C258.7,263.34,260.63,262.28,262.7,262.02z"/>
	<path class="st1" d="M292.35,270.92c0,5.21-3.51,8.94-8.41,8.94c-2.68,0-4.68-1.13-5.96-2.94v8.67c0,0.57-0.34,0.91-0.91,0.91
		h-1.58c-0.57,0-0.91-0.34-0.91-0.91v-22.48c0-0.57,0.34-0.9,0.91-0.9h1.58c0.57,0,0.91,0.34,0.91,0.9v1.81
		c1.28-1.85,3.28-2.98,5.96-2.98C288.84,261.94,292.35,265.75,292.35,270.92z M289.03,270.92c0-3.36-2.19-5.77-5.54-5.77
		c-3.32,0-5.51,2.41-5.51,5.77c0,3.32,2.19,5.73,5.51,5.73C286.84,276.65,289.03,274.24,289.03,270.92z"/>
	<path class="st1" d="M312.68,270.88v0.08c0,0.57-0.34,0.91-0.91,0.91h-12.75c0.34,3.09,2.53,5.09,5.54,5.09
		c2.04,0,3.43-0.75,4.34-1.66c0.41-0.41,0.83-0.53,1.28-0.19l0.91,0.68c0.49,0.38,0.57,0.79,0.19,1.24
		c-1.55,1.77-3.92,2.87-6.71,2.87c-5.28,0-8.83-3.85-8.83-9.01c0-5.17,3.39-8.98,8.6-8.98C309.39,261.9,312.68,265.71,312.68,270.88
		z M299.02,269.64h10.48c-0.42-2.9-2.26-5.02-5.17-5.02C301.36,264.62,299.44,266.62,299.02,269.64z"/>
	<path class="st1" d="M325.2,262.02c0.6-0.08,0.94,0.26,0.94,0.87v1.4c0,0.57-0.3,0.87-0.87,0.94c-2.3,0.23-5.24,1.51-5.24,5.43v8
		c0,0.57-0.34,0.91-0.91,0.91h-1.58c-0.57,0-0.91-0.34-0.91-0.91v-15.54c0-0.57,0.34-0.9,0.91-0.9h1.58c0.57,0,0.91,0.34,0.91,0.9
		v2.3C321.2,263.34,323.12,262.28,325.2,262.02z"/>
	<path class="st1" d="M328.93,275.48l0.91-0.57c0.53-0.34,0.83-0.19,1.21,0.26c0.87,1.13,2.64,2.07,4.71,2.07
		c2.34,0,3.55-0.79,3.55-2.49c0-1.92-2.83-2.38-4.38-2.83c-1.51-0.45-6-1.4-6-5.05c0-3.39,2.94-5.05,6.68-5.05
		c3.09,0,5.36,1.21,6.45,2.79c0.3,0.49,0.15,0.9-0.34,1.21l-0.79,0.49c-0.49,0.3-0.87,0.19-1.24-0.23
		c-0.83-0.87-2.41-1.58-4.19-1.58c-2.15,0-3.28,0.87-3.28,2.23c0,1.81,2.64,2.23,4.19,2.68c1.51,0.45,6.19,1.51,6.19,5.24
		c0,3.51-2.53,5.39-6.86,5.39c-3.58,0-6.03-1.43-7.13-3.36C328.29,276.2,328.48,275.78,328.93,275.48z"/>
	<path class="st1" d="M345.6,270.88c0-5.24,3.66-9.01,8.9-9.01c5.2,0,8.83,3.77,8.83,9.01c0,5.17-3.62,9.01-8.83,9.01
		C349.26,279.89,345.6,276.05,345.6,270.88z M359.97,270.88c0-3.32-2.19-5.73-5.47-5.73c-3.32,0-5.51,2.41-5.51,5.73
		c0,3.28,2.19,5.77,5.51,5.77C357.79,276.65,359.97,274.16,359.97,270.88z"/>
	<path class="st1" d="M382.91,268.88v9.77c0,0.57-0.34,0.91-0.9,0.91h-1.58c-0.57,0-0.91-0.34-0.91-0.91v-9.28
		c0-3.21-2.26-4.53-4.45-4.53c-2.15,0-4.37,1.32-4.37,4.53v9.28c0,0.57-0.34,0.91-0.91,0.91h-1.58c-0.57,0-0.91-0.34-0.91-0.91
		v-15.54c0-0.57,0.34-0.9,0.91-0.9h1.58c0.57,0,0.91,0.34,0.91,0.9v1.21c1.32-1.7,3.36-2.38,5.36-2.38
		C379.4,261.94,382.91,263.87,382.91,268.88z"/>
	<path class="st1" d="M402.14,262.21h1.58c0.57,0,0.91,0.34,0.91,0.9v15.54c0,0.57-0.34,0.91-0.91,0.91h-1.58
		c-0.57,0-0.91-0.34-0.91-0.91v-1.77c-1.28,1.85-3.28,2.98-5.96,2.98c-4.9,0-8.41-3.81-8.41-8.98c0-5.24,3.51-8.94,8.41-8.94
		c2.68,0,4.68,1.13,5.96,2.94v-1.77C401.24,262.54,401.58,262.21,402.14,262.21z M401.24,270.88c0-3.36-2.19-5.73-5.51-5.73
		c-3.36,0-5.54,2.38-5.54,5.73c0,3.32,2.19,5.77,5.54,5.77C399.05,276.65,401.24,274.2,401.24,270.88z"/>
	<path class="st1" d="M411.65,279.55h-1.58c-0.57,0-0.91-0.34-0.91-0.91v-22.7c0-0.57,0.34-0.91,0.91-0.91h1.62
		c0.57,0,0.9,0.34,0.9,0.91l-0.04,22.7C412.55,279.22,412.21,279.55,411.65,279.55z"/>
	<path class="st1" d="M441.03,270.88v0.08c0,0.57-0.34,0.91-0.91,0.91h-12.75c0.34,3.09,2.53,5.09,5.54,5.09
		c2.04,0,3.43-0.75,4.34-1.66c0.41-0.41,0.83-0.53,1.28-0.19l0.91,0.68c0.49,0.38,0.57,0.79,0.19,1.24
		c-1.55,1.77-3.92,2.87-6.71,2.87c-5.28,0-8.82-3.85-8.82-9.01c0-5.17,3.39-8.98,8.6-8.98C437.75,261.9,441.03,265.71,441.03,270.88
		z M427.37,269.64h10.48c-0.41-2.9-2.26-5.02-5.17-5.02C429.71,264.62,427.79,266.62,427.37,269.64z"/>
	<path class="st1" d="M449.1,278.84l-6.15-15.58c-0.23-0.6,0.04-1.06,0.72-1.06h1.66c0.49,0,0.83,0.23,1.02,0.72l4.71,12.03
		l4.75-12.03c0.19-0.45,0.53-0.72,1.02-0.72h1.66c0.68,0,0.98,0.45,0.72,1.06l-6.22,15.58c-0.19,0.45-0.53,0.72-1.02,0.72h-1.85
		C449.63,279.55,449.29,279.29,449.1,278.84z"/>
	<path class="st1" d="M478.26,270.88v0.08c0,0.57-0.34,0.91-0.91,0.91H464.6c0.34,3.09,2.53,5.09,5.54,5.09
		c2.04,0,3.43-0.75,4.34-1.66c0.41-0.41,0.83-0.53,1.28-0.19l0.91,0.68c0.49,0.38,0.57,0.79,0.19,1.24
		c-1.55,1.77-3.92,2.87-6.71,2.87c-5.28,0-8.83-3.85-8.83-9.01c0-5.17,3.39-8.98,8.6-8.98C474.97,261.9,478.26,265.71,478.26,270.88
		z M464.6,269.64h10.49c-0.42-2.9-2.26-5.02-5.17-5.02C466.94,264.62,465.02,266.62,464.6,269.64z"/>
	<path class="st1" d="M497.83,268.88v9.77c0,0.57-0.34,0.91-0.91,0.91h-1.58c-0.57,0-0.91-0.34-0.91-0.91v-9.28
		c0-3.21-2.26-4.53-4.45-4.53c-2.15,0-4.38,1.32-4.38,4.53v9.28c0,0.57-0.34,0.91-0.91,0.91h-1.58c-0.57,0-0.91-0.34-0.91-0.91
		v-15.54c0-0.57,0.34-0.9,0.91-0.9h1.58c0.57,0,0.91,0.34,0.91,0.9v1.21c1.32-1.7,3.36-2.38,5.36-2.38
		C494.32,261.94,497.83,263.87,497.83,268.88z"/>
	<path class="st1" d="M509.94,264.81h-3.13v9.81c0,1.89,1.21,2.23,2.41,2.23h0.53c0.57,0,0.91,0.34,0.91,0.91v0.91
		c0,0.57-0.34,0.91-0.91,0.91h-1.85c-2.9,0-4.49-1.62-4.49-4.45v-10.3h-1.47c-0.57,0-0.91-0.34-0.91-0.91v-0.79
		c0-0.57,0.34-0.9,0.91-0.9h1.47v-4.41c0-0.57,0.34-0.91,0.91-0.91h1.58c0.57,0,0.91,0.34,0.91,0.91v4.41h3.13
		c0.57,0,0.91,0.34,0.91,0.9v0.79C510.84,264.47,510.5,264.81,509.94,264.81z"/>
	<path class="st1" d="M521.74,275.48l0.91-0.57c0.53-0.34,0.83-0.19,1.21,0.26c0.87,1.13,2.64,2.07,4.71,2.07
		c2.34,0,3.55-0.79,3.55-2.49c0-1.92-2.83-2.38-4.38-2.83c-1.51-0.45-6-1.4-6-5.05c0-3.39,2.94-5.05,6.68-5.05
		c3.09,0,5.36,1.21,6.45,2.79c0.3,0.49,0.15,0.9-0.34,1.21l-0.79,0.49c-0.49,0.3-0.87,0.19-1.24-0.23
		c-0.83-0.87-2.41-1.58-4.19-1.58c-2.15,0-3.28,0.87-3.28,2.23c0,1.81,2.64,2.23,4.19,2.68c1.51,0.45,6.19,1.51,6.19,5.24
		c0,3.51-2.53,5.39-6.86,5.39c-3.58,0-6.03-1.43-7.13-3.36C521.1,276.2,521.29,275.78,521.74,275.48z"/>
	<path class="st1" d="M555.35,270.88v0.08c0,0.57-0.34,0.91-0.91,0.91H541.7c0.34,3.09,2.53,5.09,5.54,5.09
		c2.04,0,3.43-0.75,4.34-1.66c0.41-0.41,0.83-0.53,1.28-0.19l0.91,0.68c0.49,0.38,0.57,0.79,0.19,1.24
		c-1.55,1.77-3.92,2.87-6.71,2.87c-5.28,0-8.83-3.85-8.83-9.01c0-5.17,3.39-8.98,8.6-8.98C552.07,261.9,555.35,265.71,555.35,270.88
		z M541.7,269.64h10.48c-0.41-2.9-2.26-5.02-5.17-5.02C544.03,264.62,542.11,266.62,541.7,269.64z"/>
	<path class="st1" d="M561.8,279.55h-1.58c-0.57,0-0.91-0.34-0.91-0.91v-22.7c0-0.57,0.34-0.91,0.91-0.91h1.62
		c0.57,0,0.91,0.34,0.91,0.91l-0.04,22.7C562.7,279.22,562.37,279.55,561.8,279.55z"/>
	<path class="st1" d="M583.64,270.88v0.08c0,0.57-0.34,0.91-0.91,0.91h-12.75c0.34,3.09,2.53,5.09,5.54,5.09
		c2.04,0,3.43-0.75,4.34-1.66c0.41-0.41,0.83-0.53,1.28-0.19l0.91,0.68c0.49,0.38,0.57,0.79,0.19,1.24
		c-1.55,1.77-3.92,2.87-6.71,2.87c-5.28,0-8.83-3.85-8.83-9.01c0-5.17,3.39-8.98,8.6-8.98C580.36,261.9,583.64,265.71,583.64,270.88
		z M569.98,269.64h10.48c-0.41-2.9-2.26-5.02-5.17-5.02C572.32,264.62,570.4,266.62,569.98,269.64z"/>
	<path class="st1" d="M599.89,266.62c-0.87-0.83-2.19-1.47-3.96-1.47c-3.32,0-5.58,2.38-5.58,5.73c0,3.32,2.26,5.77,5.58,5.77
		c1.81,0,3.09-0.6,3.96-1.47c0.42-0.41,0.79-0.45,1.24-0.11l1.02,0.75c0.45,0.34,0.57,0.79,0.19,1.24
		c-1.51,1.77-3.77,2.83-6.49,2.83c-5.2,0-8.83-3.81-8.83-9.01c0-5.24,3.62-8.98,8.83-8.98c2.72,0,4.98,1.06,6.49,2.79
		c0.38,0.45,0.3,0.91-0.15,1.28l-1.06,0.79C600.69,267.15,600.31,267.03,599.89,266.62z"/>
	<path class="st1" d="M614.26,264.81h-3.13v9.81c0,1.89,1.21,2.23,2.41,2.23h0.53c0.57,0,0.91,0.34,0.91,0.91v0.91
		c0,0.57-0.34,0.91-0.91,0.91h-1.85c-2.9,0-4.49-1.62-4.49-4.45v-10.3h-1.47c-0.57,0-0.91-0.34-0.91-0.91v-0.79
		c0-0.57,0.34-0.9,0.91-0.9h1.47v-4.41c0-0.57,0.34-0.91,0.91-0.91h1.58c0.57,0,0.91,0.34,0.91,0.91v4.41h3.13
		c0.57,0,0.91,0.34,0.91,0.9v0.79C615.17,264.47,614.83,264.81,614.26,264.81z"/>
	<path class="st1" d="M617.43,270.88c0-5.24,3.66-9.01,8.9-9.01c5.2,0,8.83,3.77,8.83,9.01c0,5.17-3.62,9.01-8.83,9.01
		C621.09,279.89,617.43,276.05,617.43,270.88z M631.8,270.88c0-3.32-2.19-5.73-5.47-5.73c-3.32,0-5.51,2.41-5.51,5.73
		c0,3.28,2.19,5.77,5.51,5.77C629.62,276.65,631.8,274.16,631.8,270.88z"/>
	<path class="st1" d="M647.68,262.02c0.6-0.08,0.94,0.26,0.94,0.87v1.4c0,0.57-0.3,0.87-0.87,0.94c-2.3,0.23-5.24,1.51-5.24,5.43v8
		c0,0.57-0.34,0.91-0.9,0.91h-1.58c-0.57,0-0.91-0.34-0.91-0.91v-15.54c0-0.57,0.34-0.9,0.91-0.9h1.58c0.57,0,0.9,0.34,0.9,0.9v2.3
		C643.68,263.34,645.61,262.28,647.68,262.02z"/>
</g>
</svg>
